<svg xmlns="http://www.w3.org/2000/svg" xmlns:xlink="http://www.w3.org/1999/xlink" viewBox="0 0 200 300">
  <defs>
    <style>
      .cls-1 {
        isolation: isolate;
      }

      .cls-2 {
        fill: #2a3c24;
        opacity: 0.31;
        mix-blend-mode: difference;
      }

      .cls-3 {
        fill: url(#linear-gradient);
      }

      .cls-4 {
        opacity: 0.8;
      }

      .cls-5 {
        fill: #37673f;
      }

      .cls-12, .cls-13, .cls-6, .cls-9 {
        fill: none;
      }

      .cls-6, .cls-9 {
        stroke: #fff;
      }

      .cls-6 {
        stroke-width: 0.5px;
      }

      .cls-10, .cls-7 {
        fill: #fff;
      }

      .cls-8 {
        fill: #edf0a3;
      }

      .cls-9 {
        stroke-linecap: round;
      }

      .cls-10, .cls-12 {
        stroke: #4f7956;
      }

      .cls-10, .cls-12, .cls-13 {
        stroke-miterlimit: 10;
      }

      .cls-10 {
        stroke-width: 12px;
      }

      .cls-11 {
        fill: #4f7956;
      }

      .cls-12 {
        stroke-width: 4px;
      }

      .cls-13 {
        stroke: #edf0a3;
      }
    </style>
    <linearGradient id="linear-gradient" y1="244.5" x2="200" y2="244.5" gradientUnits="userSpaceOnUse">
      <stop offset="0" stop-color="#628869" stop-opacity="0.2"/>
      <stop offset="0.12" stop-color="#46724e" stop-opacity="0.46"/>
      <stop offset="0.2" stop-color="#37673f" stop-opacity="0.6"/>
      <stop offset="0.37" stop-color="#37673f"/>
      <stop offset="0.46" stop-color="#37673f"/>
      <stop offset="1" stop-color="#37673f"/>
    </linearGradient>
  </defs>
  <title>blin</title>
  <g class="cls-1">
    <g id="Layer_2" data-name="Layer 2">
      <g id="Layer_1-2" data-name="Layer 1">
        <g>
          <image width="434" height="652" transform="scale(0.46)" xlink:href="../img/5.jpg"/>
          <rect class="cls-2" width="200" height="300"/>
          <rect class="cls-3" y="217" width="200" height="55"/>
          <g class="cls-4">
            <circle class="cls-5" cx="133.08" cy="145.48" r="55.5"/>
            <circle class="cls-6" cx="133.08" cy="145.48" r="58.27"/>
          </g>
          <g>
            <path class="cls-7" d="M102.16,133a1.53,1.53,0,0,0,1.27.76,1.08,1.08,0,0,0,.78-.28.92.92,0,0,0,.3-.72,1,1,0,0,0-.29-.74,1.73,1.73,0,0,0-1.2-.29h-.3v-1.22h.3a1.24,1.24,0,0,0,.82-.25.85.85,0,0,0,.28-.67.79.79,0,0,0-.24-.61.85.85,0,0,0-.62-.23,1.39,1.39,0,0,0-.94.46l-.81-.9a2.85,2.85,0,0,1,1.09-.7,3,3,0,0,1,.8-.12,2.16,2.16,0,0,1,1.48.52,1.72,1.72,0,0,1,.6,1.38,2.17,2.17,0,0,1-.14.75,1.91,1.91,0,0,1-.75.78,1.94,1.94,0,0,1,1.26,1.91,2,2,0,0,1-.67,1.61,2.46,2.46,0,0,1-1.73.61,2.84,2.84,0,0,1-1.19-.24,3.4,3.4,0,0,1-1.15-1Z"/>
            <path class="cls-7" d="M109.35,127.64h1.38l2.77,7.18h-1.42l-.57-1.48h-2.93l-.58,1.48h-1.42Zm.7,1.9-1,2.47H111Z"/>
            <path class="cls-7" d="M117.35,134.82v-7.18h3.75V129h-2.39v1.38h.3a4.75,4.75,0,0,1,1.49.2,1.93,1.93,0,0,1,1,.75,2.29,2.29,0,0,1,.38,1.31,2.2,2.2,0,0,1-.29,1.2,2.23,2.23,0,0,1-.79.73,2.9,2.9,0,0,1-1.4.28Zm1.36-3.25v2h.35a1.79,1.79,0,0,0,1.18-.25.86.86,0,0,0,.25-.66c0-.69-.5-1-1.49-1Z"/>
            <path class="cls-7" d="M125.05,133.17l-2.55-5.53H124l1.69,4,1.39-4h1.4l-1.91,5.14a4,4,0,0,1-1.07,1.76,2,2,0,0,1-1.23.45,2.58,2.58,0,0,1-2-1.05l.9-.9a1.45,1.45,0,0,0,1.06.62.62.62,0,0,0,.39-.11A2.26,2.26,0,0,0,125.05,133.17Z"/>
            <path class="cls-7" d="M131.79,127.64h1.38l2.31,5.9h.8v2.36H135v-1.08H130v1.08h-1.32v-2.36h.79Zm.7,1.9-1.57,4h3.14Z"/>
            <path class="cls-7" d="M139.17,133.17l-2.55-5.53h1.54l1.69,4,1.39-4h1.41l-1.92,5.14a4,4,0,0,1-1.07,1.76,2,2,0,0,1-1.23.45,2.59,2.59,0,0,1-2-1.05l.9-.9a1.45,1.45,0,0,0,1.06.62.6.6,0,0,0,.39-.11A2.26,2.26,0,0,0,139.17,133.17Z"/>
            <path class="cls-7" d="M150.1,133.59v-6h1.37v6h1.47v2.31h-1.28v-1.08h-8.21v-7.18h1.39v6h1.92v-6h1.37v6Z"/>
            <path class="cls-7" d="M153.82,127.64h3.92V129h-2.57v1.29h2.57v1.32h-2.57v1.89h2.57v1.34h-3.92Z"/>
            <path class="cls-7" d="M159,127.64h3.92V129h-2.57v1.29h2.57v1.32h-2.57v1.89h2.57v1.34H159Z"/>
            <path class="cls-7" d="M94.51,142.74h2.91v5.69h5v-5.69h2.9v15.08h-2.9v-6.61h-5v6.61H94.51Z"/>
            <path class="cls-7" d="M113.4,142.74h2.92l5.8,15.08h-3L118,154.71H111.8l-1.23,3.11h-3Zm1.48,4-2,5.18h4Z"/>
            <path class="cls-7" d="M131.27,155.24v-12.5h2.89v12.5h4.1v-12.5h2.91v15.08H124.33V142.74h2.91v12.5Z"/>
            <path class="cls-7" d="M155.58,142.74v15.08h-2.87v-9.44l-5.63,9.44h-2.49V142.74h2.87v9.75l5.7-9.75Z"/>
            <path class="cls-7" d="M158.05,142.74h3.23l3.17,4.84,3.18-4.84h3.22l-4.78,7.31,5.08,7.77h-3.23l-3.47-5.3-3.47,5.3h-3.25l5.1-7.78Z"/>
            <path class="cls-7" d="M105.24,164.74h2.9L113,177.12h1.67v5H111.9v-2.26H101.52v2.26H98.74v-5h1.67Zm1.48,4-3.31,8.38H110Z"/>
            <path class="cls-7" d="M116.54,164.74h8.23v2.81h-5.38v2.72h5.38V173h-5.38v4h5.38v2.82h-8.23Z"/>
            <path class="cls-7" d="M126,164.74h8.34v2.83h-2.75v12.25h-2.91V167.57H126Z"/>
            <path class="cls-7" d="M136.28,164.74h8.23v2.81h-5.38v2.72h5.38V173h-5.38v4h5.38v2.82h-8.23Z"/>
            <path class="cls-7" d="M158.17,164.74v15.08H155.3v-9.44l-5.63,9.44h-2.49V164.74h2.87v9.75l5.7-9.75Zm-9.6-4.05h2.27a1.63,1.63,0,0,0,.74.63,2.91,2.91,0,0,0,1.17.21,3,3,0,0,0,1.26-.25,1.55,1.55,0,0,0,.64-.59h2.27a3.1,3.1,0,0,1-1.25,2.09,4.78,4.78,0,0,1-2.94.79,5.49,5.49,0,0,1-2.12-.36,3.38,3.38,0,0,1-1.38-1A3.21,3.21,0,0,1,148.57,160.69Z"/>
            <path class="cls-7" d="M162.83,176.6a1.76,1.76,0,0,1,1.76,1.75,1.78,1.78,0,0,1-1.76,1.76,1.76,1.76,0,1,1,0-3.51Zm-1.42-12.24h2.83v11h-2.83Z"/>
          </g>
          <g>
            <path class="cls-8" d="M7.78,290.62V279.85H9.47a8.61,8.61,0,0,1,2.16.19,2.88,2.88,0,0,1,1.54.95,2.5,2.5,0,0,1,.57,1.64,2.34,2.34,0,0,1-.26,1.12,2.9,2.9,0,0,1-.84.94,3.38,3.38,0,0,1,1.43,1.15,3,3,0,0,1,.46,1.64,3.05,3.05,0,0,1-.47,1.65,3.09,3.09,0,0,1-1.21,1.12,4.64,4.64,0,0,1-2,.37Zm2.05-8.82v2.27h.45a1.65,1.65,0,0,0,1.11-.31,1.06,1.06,0,0,0,.37-.86,1,1,0,0,0-.35-.8,1.57,1.57,0,0,0-1.05-.3Zm0,4.1v2.77h.52a3.12,3.12,0,0,0,1.72-.33,1.08,1.08,0,0,0,.44-.93,1.3,1.3,0,0,0-.52-1.1,2.87,2.87,0,0,0-1.73-.41Z"/>
            <path class="cls-8" d="M25.12,281.74l-1.29,1.37a3.86,3.86,0,0,0-3-1.55,3,3,0,0,0-2.35,1.06,3.75,3.75,0,0,0-.95,2.6,4.16,4.16,0,0,0,.42,1.91,3.24,3.24,0,0,0,2.91,1.79,3.3,3.3,0,0,0,1.47-.33,5.3,5.3,0,0,0,1.46-1.22l1.25,1.46a7,7,0,0,1-2,1.61,5.06,5.06,0,0,1-2.18.45,4.76,4.76,0,0,1-3.7-1.59,5.85,5.85,0,0,1-1.44-4.09,6.18,6.18,0,0,1,.65-2.86,5.19,5.19,0,0,1,1.88-2,4.88,4.88,0,0,1,2.64-.76,5,5,0,0,1,2.31.56A5.61,5.61,0,0,1,25.12,281.74Z"/>
            <path class="cls-8" d="M25.66,279.85h6v2h-2v8.75H27.57v-8.75H25.66Z"/>
            <path class="cls-8" d="M36.28,288.15l-3.82-8.3h2.31l2.54,6,2.08-6H41.5l-2.87,7.7A6,6,0,0,1,37,290.2a3,3,0,0,1-1.85.67,3.87,3.87,0,0,1-3-1.57L33.57,288a2.22,2.22,0,0,0,1.59.93.89.89,0,0,0,.58-.17A3.25,3.25,0,0,0,36.28,288.15Z"/>
            <path class="cls-8" d="M42.73,279.85h7.75v10.77H48.41v-8.86h-3.6v8.86H42.73Z"/>
            <path class="cls-8" d="M56,279.85h2.08l4.14,10.77H60.06l-.84-2.22h-4.4l-.88,2.22H51.81ZM57,282.7l-1.45,3.7h2.89Z"/>
            <path class="cls-8" d="M71.37,279.85v10.77H69.32v-6.75l-4,6.75H63.52V279.85h2v7l4.07-7ZM64.52,277h1.61a1.2,1.2,0,0,0,.54.45,2,2,0,0,0,.83.15,2.19,2.19,0,0,0,.9-.17,1.1,1.1,0,0,0,.46-.43h1.62a2.26,2.26,0,0,1-.89,1.5,3.47,3.47,0,0,1-2.1.56,4,4,0,0,1-1.52-.25,2.45,2.45,0,0,1-1-.72A2.36,2.36,0,0,1,64.52,277Z"/>
            <path class="cls-8" d="M72.6,279.85h6v2h-2v8.75H74.51v-8.75H72.6Z"/>
            <path class="cls-8" d="M79.8,279.85h5.88v2H81.84v1.95h3.84v2H81.84v2.84h3.84v2H79.8Z"/>
            <path class="cls-8" d="M91.49,290.62V279.85h1.7a8.57,8.57,0,0,1,2.15.19,2.88,2.88,0,0,1,1.54.95,2.5,2.5,0,0,1,.57,1.64,2.34,2.34,0,0,1-.26,1.12,2.9,2.9,0,0,1-.84.94,3.38,3.38,0,0,1,1.43,1.15,2.87,2.87,0,0,1,.46,1.64,3.12,3.12,0,0,1-1.68,2.77,4.64,4.64,0,0,1-2,.37Zm2.05-8.82v2.27H94a1.7,1.7,0,0,0,1.12-.31,1.09,1.09,0,0,0,.36-.86,1,1,0,0,0-.35-.8,1.57,1.57,0,0,0-1.05-.3Zm0,4.1v2.77h.52a3.12,3.12,0,0,0,1.72-.33,1.05,1.05,0,0,0,.44-.93,1.3,1.3,0,0,0-.52-1.1A2.85,2.85,0,0,0,94,285.9Z"/>
            <path class="cls-8" d="M104.08,279.85h2.08v4.06h3.6v-4.06h2.07v10.77h-2.07V285.9h-3.6v4.72h-2.08Z"/>
            <path class="cls-8" d="M117.32,279.85h2.08l4.14,10.77h-2.13l-.84-2.22h-4.4l-.87,2.22h-2.13Zm1.05,2.85-1.44,3.7h2.88Z"/>
            <path class="cls-8" d="M129.27,288.77v-8.92h1.86v8.92h2.64v-8.92h1.87v10.77H124.81V279.85h1.87v8.92Z"/>
            <path class="cls-8" d="M145.56,279.85v10.77h-2.05v-6.75l-4,6.75h-1.78V279.85h2v7l4.07-7Z"/>
            <path class="cls-8" d="M151.91,279.85h2.18a7.35,7.35,0,0,1,2.54.32,2.59,2.59,0,0,1,1.23,1.06,3.22,3.22,0,0,1,.45,1.74,2.9,2.9,0,0,1-.59,1.88,3,3,0,0,1-1.6,1,9.24,9.24,0,0,1-2.16.17v4.56h-2.05Zm2.05,4.21h.65a3.61,3.61,0,0,0,1.07-.11,1,1,0,0,0,.48-.37,1.07,1.07,0,0,0,.17-.61,1,1,0,0,0-.49-.91,2.77,2.77,0,0,0-1.3-.21H154Z"/>
            <path class="cls-8" d="M166.35,279.85v10.77h-2v-4.34h-.51l-2.17,4.34h-2.24l2.44-4.67a2.69,2.69,0,0,1-2.12-2.83,3.84,3.84,0,0,1,.22-1.38,2.69,2.69,0,0,1,.64-1,2.52,2.52,0,0,1,1-.6,3.72,3.72,0,0,1,.86-.22c.22,0,.82-.05,1.8-.08Zm-2,4.43v-2.43h-.56a4.8,4.8,0,0,0-1.11.09,1.08,1.08,0,0,0-.55.4,1.28,1.28,0,0,0-.21.75,1,1,0,0,0,.43.93,2.61,2.61,0,0,0,1.36.26Z"/>
            <path class="cls-8" d="M171.72,279.85h1.86l3.12,8.84h1.08v3.54H176v-1.61h-6.67v1.61h-1.79v-3.54h1.07Zm.95,2.85-2.13,6h4.25Z"/>
            <path class="cls-8" d="M178.87,290.62V279.85h1.84v4.06h.4a5.3,5.3,0,0,1,1.92.3,2.84,2.84,0,0,1,1.33,1.13,3.51,3.51,0,0,1,.56,2,3.44,3.44,0,0,1-.48,1.87,2.83,2.83,0,0,1-1.12,1.09,3.94,3.94,0,0,1-1.74.32Zm1.84-4.88v2.93h.46a2.57,2.57,0,0,0,1.53-.32,1.32,1.32,0,0,0,.39-1.08c0-1-.66-1.53-2-1.53Zm5.55-5.89h1.83v10.77h-1.83Z"/>
            <path class="cls-8" d="M191.28,288.32a1.26,1.26,0,0,1,1.26,1.25,1.24,1.24,0,0,1-.37.89,1.26,1.26,0,0,1-.89.37,1.22,1.22,0,0,1-.89-.37,1.24,1.24,0,0,1-.37-.89,1.22,1.22,0,0,1,.37-.88A1.19,1.19,0,0,1,191.28,288.32Zm-1-8.74h2v7.87h-2Z"/>
          </g>
          <g>
            <path class="cls-7" d="M121.17,228h-.84v-3.72h2.94V228h-.84v-2.82h-1.26Z"/>
            <path class="cls-7" d="M125.62,224.19a1.58,1.58,0,0,1,.89.27,1.72,1.72,0,0,1,.65.71,2,2,0,0,1,.24,1,2.1,2.1,0,0,1-.24,1,1.94,1.94,0,0,1-.64.72,1.64,1.64,0,0,1-.89.25,1.59,1.59,0,0,1-1.23-.57,2.13,2.13,0,0,1,.06-2.83A1.6,1.6,0,0,1,125.62,224.19Zm0,.88a.85.85,0,0,0-.66.3,1.18,1.18,0,0,0-.26.78,1.17,1.17,0,0,0,.26.78.85.85,0,0,0,1.31,0,1.17,1.17,0,0,0,.26-.78,1.12,1.12,0,0,0-.26-.78A.82.82,0,0,0,125.64,225.07Z"/>
            <path class="cls-7" d="M131,228h-.85l-.84-2.35-.85,2.35h-.86l1.43-3.72h.54Z"/>
            <path class="cls-7" d="M131.83,228h-.44v-3.72h.82v2.18l1.71-2.18h.4V228h-.82v-2.14Z"/>
            <path class="cls-7" d="M134.81,224.29h3.12v.89h-1.11V228H136v-2.83h-1.17Z"/>
            <path class="cls-7" d="M138.86,228h-.45v-3.72h.82v2.18l1.71-2.18h.41V228h-.82v-2.14Z"/>
            <path class="cls-7" d="M144,226.53h-.67a1.71,1.71,0,0,1-1.06-.29,1.18,1.18,0,0,1-.36-1v-1h.84v.92c0,.32.19.48.59.48H144v-1.4h.84V228H144Z"/>
            <path class="cls-7" d="M148.93,226.42h-2.7a1.05,1.05,0,0,0,.31.63.91.91,0,0,0,.65.23,1.09,1.09,0,0,0,.81-.36l.71.37a1.77,1.77,0,0,1-.64.61,1.72,1.72,0,0,1-.87.2,1.64,1.64,0,0,1-1.29-.55,2,2,0,0,1-.49-1.38,2,2,0,0,1,.49-1.41,1.57,1.57,0,0,1,1.24-.57,1.61,1.61,0,0,1,1.28.57,2.16,2.16,0,0,1,.5,1.48Zm-.84-.74a1,1,0,0,0-.33-.5.88.88,0,0,0-.57-.2,1,1,0,0,0-.62.22,1.17,1.17,0,0,0-.3.48Z"/>
            <path class="cls-7" d="M152.82,225l-.7.43a1.22,1.22,0,0,0-.39-.32,1.06,1.06,0,0,0-.45-.09,1,1,0,0,0-.76.31,1.11,1.11,0,0,0-.29.8,1.08,1.08,0,0,0,.28.78.94.94,0,0,0,.73.3,1,1,0,0,0,.88-.43l.66.51a1.75,1.75,0,0,1-1.52.77,1.72,1.72,0,0,1-1.38-.58,2,2,0,0,1-.5-1.36,2,2,0,0,1,.25-1,1.79,1.79,0,0,1,.67-.72,1.91,1.91,0,0,1,1-.26,1.86,1.86,0,0,1,.89.22A1.78,1.78,0,0,1,152.82,225Z"/>
            <path class="cls-7" d="M153.51,224.29h.84v1.39l1.16-1.39h1L155,226.1l1.51,1.91h-1.11l-1-1.32-.09.12V228h-.84Z"/>
            <path class="cls-7" d="M159.31,224.29h.84V228h-.84v-.39a1.79,1.79,0,0,1-.5.37,1.17,1.17,0,0,1-.53.11,1.39,1.39,0,0,1-1.12-.56,2,2,0,0,1-.48-1.38,2.13,2.13,0,0,1,.46-1.42,1.43,1.43,0,0,1,1.11-.55,1.4,1.4,0,0,1,.57.13,1.55,1.55,0,0,1,.49.38Zm-.89.76a.81.81,0,0,0-.64.31,1.13,1.13,0,0,0-.26.78,1.22,1.22,0,0,0,.26.8.81.81,0,0,0,.65.31.8.8,0,0,0,.65-.31,1.15,1.15,0,0,0,.26-.8,1.12,1.12,0,0,0-.26-.78A.83.83,0,0,0,158.42,225.05Z"/>
            <path class="cls-7" d="M161.5,226.48a.83.83,0,0,1-.44-.37,1.12,1.12,0,0,1-.18-.62,1.28,1.28,0,0,1,.21-.73,1,1,0,0,1,.51-.39,4,4,0,0,1,.92-.08h.85V228h-.84v-1.35h-.16l-.8,1.35h-1Zm1-.52v-.89h-.3c-.31,0-.47.15-.47.44s.17.45.53.45Z"/>
            <path class="cls-7" d="M166.69,228h-.84v-3.72h2.93V228h-.84v-2.82h-1.25Z"/>
            <path class="cls-7" d="M172,224.29h.84V228H172v-.39a1.79,1.79,0,0,1-.5.37,1.17,1.17,0,0,1-.53.11,1.4,1.4,0,0,1-1.12-.56,2,2,0,0,1-.48-1.38,2.18,2.18,0,0,1,.46-1.42,1.43,1.43,0,0,1,1.11-.55,1.36,1.36,0,0,1,.57.13,1.45,1.45,0,0,1,.49.38Zm-.88.76a.83.83,0,0,0-.65.31,1.18,1.18,0,0,0-.26.78,1.22,1.22,0,0,0,.26.8.81.81,0,0,0,.65.31.8.8,0,0,0,.65-.31,1.16,1.16,0,0,0,.27-.8,1.12,1.12,0,0,0-.27-.78A.83.83,0,0,0,171.16,225.05Z"/>
            <path class="cls-7" d="M174.5,224.29v.41a1.45,1.45,0,0,1,.49-.38,1.36,1.36,0,0,1,.57-.13,1.43,1.43,0,0,1,1.11.55,2.18,2.18,0,0,1,.46,1.42,2,2,0,0,1-.48,1.38,1.4,1.4,0,0,1-1.12.56A1.24,1.24,0,0,1,175,228a1.76,1.76,0,0,1-.49-.37v1.75h-.84v-5.08Zm.88.76a.86.86,0,0,0-.66.31,1.17,1.17,0,0,0-.26.78,1.2,1.2,0,0,0,.26.8.83.83,0,0,0,.66.31.81.81,0,0,0,.65-.31,1.22,1.22,0,0,0,.26-.8,1.13,1.13,0,0,0-.26-.78A.83.83,0,0,0,175.38,225.05Z"/>
            <path class="cls-7" d="M177.46,224.29h3.12v.89h-1.11V228h-.84v-2.83h-1.17Z"/>
            <path class="cls-7" d="M181.51,228h-.44v-3.72h.81v2.18l1.72-2.18h.4V228h-.82v-2.14Z"/>
            <path class="cls-7" d="M185.36,226.48a.89.89,0,0,1-.45-.37,1.11,1.11,0,0,1-.17-.62,1.28,1.28,0,0,1,.21-.73,1,1,0,0,1,.51-.39,3.92,3.92,0,0,1,.91-.08h.85V228h-.84v-1.35h-.16l-.8,1.35h-1Zm1-.52v-.89h-.29c-.32,0-.48.15-.48.44s.18.45.53.45Z"/>
            <path class="cls-7" d="M29.43,231h.92a2.7,2.7,0,0,1,1.06.15,1.12,1.12,0,0,1,.52.49,1.63,1.63,0,0,1,.19.82,1.42,1.42,0,0,1-.25.87,1.23,1.23,0,0,1-.67.49,3.62,3.62,0,0,1-.91.08V236h-.86Zm.86,2h.28a1.21,1.21,0,0,0,.45-.06.35.35,0,0,0,.19-.17.49.49,0,0,0,.08-.28.47.47,0,0,0-.21-.43,1.09,1.09,0,0,0-.54-.1h-.25Z"/>
            <path class="cls-7" d="M35,230.85a2.13,2.13,0,0,1,1.65.78,2.9,2.9,0,0,1,0,3.74,2.21,2.21,0,0,1-3.35,0,2.74,2.74,0,0,1-.67-1.86,2.79,2.79,0,0,1,.31-1.32,2.43,2.43,0,0,1,.86-1A2.13,2.13,0,0,1,35,230.85Zm0,.94a1.35,1.35,0,0,0-1.06.49,1.81,1.81,0,0,0-.43,1.23,1.69,1.69,0,0,0,.54,1.32,1.41,1.41,0,0,0,1,.38,1.38,1.38,0,0,0,1.05-.49,1.83,1.83,0,0,0,.43-1.22,1.77,1.77,0,0,0-.44-1.21A1.35,1.35,0,0,0,35,231.79Z"/>
            <path class="cls-7" d="M42.29,231.86l-.61.64a1.79,1.79,0,0,0-1.38-.72,1.4,1.4,0,0,0-1.09.49,1.75,1.75,0,0,0-.45,1.22,2,2,0,0,0,.2.89,1.5,1.5,0,0,0,.56.61,1.46,1.46,0,0,0,.8.22,1.51,1.51,0,0,0,.68-.15,2.2,2.2,0,0,0,.68-.57l.59.68a3.29,3.29,0,0,1-1,.75,2.38,2.38,0,0,1-1,.21,2.18,2.18,0,0,1-1.72-.74,2.71,2.71,0,0,1-.68-1.9,2.88,2.88,0,0,1,.31-1.34,2.41,2.41,0,0,1,.88-.94,2.27,2.27,0,0,1,2.3-.09A2.56,2.56,0,0,1,42.29,231.86Z"/>
            <path class="cls-7" d="M47.14,231.86l-.61.64a1.79,1.79,0,0,0-1.38-.72,1.4,1.4,0,0,0-1.09.49,1.75,1.75,0,0,0-.45,1.22,2,2,0,0,0,.2.89,1.5,1.5,0,0,0,.56.61,1.46,1.46,0,0,0,.8.22,1.51,1.51,0,0,0,.68-.15,2.2,2.2,0,0,0,.68-.57l.59.68a3.29,3.29,0,0,1-.95.75,2.38,2.38,0,0,1-1,.21,2.18,2.18,0,0,1-1.72-.74,2.71,2.71,0,0,1-.68-1.9,2.76,2.76,0,0,1,.31-1.34,2.41,2.41,0,0,1,.88-.94,2.27,2.27,0,0,1,2.3-.09A2.56,2.56,0,0,1,47.14,231.86Z"/>
            <path class="cls-7" d="M51.12,231v5h-.86v-3.15L48.57,236h-.75v-5h.87v3.25L50.4,231Z"/>
            <path class="cls-7" d="M55.39,231v5h-.86v-3.15L52.84,236h-.75v-5H53v3.25L54.66,231Zm-2.88-1.35h.68a.56.56,0,0,0,.22.21.75.75,0,0,0,.35.07.92.92,0,0,0,.38-.08.46.46,0,0,0,.19-.2H55a1.07,1.07,0,0,1-.37.7,1.38,1.38,0,0,1-.88.26,1.49,1.49,0,0,1-.64-.12,1.14,1.14,0,0,1-.42-.33A1.13,1.13,0,0,1,52.51,229.63Z"/>
            <path class="cls-7" d="M60.52,231.86l-.61.64a1.79,1.79,0,0,0-1.38-.72,1.4,1.4,0,0,0-1.09.49,1.75,1.75,0,0,0-.45,1.22,2,2,0,0,0,.2.89,1.5,1.5,0,0,0,.56.61,1.46,1.46,0,0,0,.8.22,1.54,1.54,0,0,0,.68-.15,2.2,2.2,0,0,0,.68-.57l.59.68a3.29,3.29,0,0,1-1,.75,2.38,2.38,0,0,1-1,.21,2.18,2.18,0,0,1-1.72-.74,2.71,2.71,0,0,1-.68-1.9,2.76,2.76,0,0,1,.31-1.34,2.41,2.41,0,0,1,.88-.94,2.25,2.25,0,0,1,1.22-.36,2.28,2.28,0,0,1,1.08.27A2.56,2.56,0,0,1,60.52,231.86Z"/>
            <path class="cls-7" d="M61.21,231h.87v1.73L63.31,231h1l-1.58,2.24L64.5,236h-1l-1.4-2.24V236h-.87Z"/>
            <path class="cls-7" d="M66.43,231h.88l1.74,5h-.9l-.35-1H66l-.37,1h-.89Zm.44,1.33-.6,1.73h1.21Z"/>
            <path class="cls-7" d="M72.31,231v5h-.86v-2h-.21l-.91,2h-.94l1-2.18a1.24,1.24,0,0,1-.89-1.32,2,2,0,0,1,.09-.64,1.35,1.35,0,0,1,.27-.47,1.21,1.21,0,0,1,.4-.28,1.6,1.6,0,0,1,.37-.1l.75,0Zm-.86,2.07v-1.13h-.24a1.76,1.76,0,0,0-.46,0,.44.44,0,0,0-.23.18.68.68,0,0,0-.09.35.49.49,0,0,0,.18.44,1.05,1.05,0,0,0,.57.12Z"/>
            <path class="cls-7" d="M76.67,235.21a1.5,1.5,0,0,0,.91-.29,1.64,1.64,0,0,0,.6-.95H76.44v-.87h1.74a1.5,1.5,0,0,0-.49-.92,1.41,1.41,0,0,0-1-.4,1.77,1.77,0,0,0-1.39.72l-.6-.63a2.52,2.52,0,0,1,2-1,2.3,2.3,0,0,1,1.69.73,2.59,2.59,0,0,1,.72,1.91,2.79,2.79,0,0,1-.66,1.89,2.21,2.21,0,0,1-1.74.75,2.47,2.47,0,0,1-1-.19,2.78,2.78,0,0,1-1-.77l.58-.68A1.82,1.82,0,0,0,76.67,235.21Z"/>
            <path class="cls-7" d="M79.84,231h.87v1.73L81.94,231h1l-1.58,2.24L83.13,236h-1l-1.39-2.24V236h-.87Z"/>
            <path class="cls-7" d="M85.81,230.85a2.13,2.13,0,0,1,1.65.78,2.71,2.71,0,0,1,.69,1.88,2.67,2.67,0,0,1-.68,1.86,2.2,2.2,0,0,1-3.34,0,2.75,2.75,0,0,1-.68-1.86,2.8,2.8,0,0,1,.32-1.32,2.29,2.29,0,0,1,.86-1A2.12,2.12,0,0,1,85.81,230.85Zm0,.94a1.32,1.32,0,0,0-1,.49,1.76,1.76,0,0,0-.43,1.23,1.69,1.69,0,0,0,.54,1.32,1.41,1.41,0,0,0,1,.38,1.34,1.34,0,0,0,1-.49,1.78,1.78,0,0,0,.43-1.22,1.76,1.76,0,0,0-.43-1.21A1.36,1.36,0,0,0,85.8,231.79Z"/>
            <path class="cls-7" d="M91.83,236l-1.25-3.7L89.31,236h-.92l1.75-5H91l1.74,5Z"/>
            <path class="cls-7" d="M95.35,230.85a2.13,2.13,0,0,1,1.65.78,2.9,2.9,0,0,1,0,3.74,2.21,2.21,0,0,1-3.35,0,2.74,2.74,0,0,1-.67-1.86,2.79,2.79,0,0,1,.31-1.32,2.38,2.38,0,0,1,.87-1A2.1,2.1,0,0,1,95.35,230.85Zm0,.94a1.35,1.35,0,0,0-1.06.49,1.81,1.81,0,0,0-.43,1.23,1.69,1.69,0,0,0,.54,1.32,1.41,1.41,0,0,0,1,.38,1.38,1.38,0,0,0,1.05-.49,1.78,1.78,0,0,0,.43-1.22,1.81,1.81,0,0,0-.43-1.21A1.37,1.37,0,0,0,95.34,231.79Z"/>
            <path class="cls-7" d="M98.44,231h2.24v.94H99.29V236h-.85Z"/>
            <path class="cls-7" d="M104.59,231v5h-.86v-3.15L102,236h-.75v-5h.86v3.25l1.71-3.25Z"/>
            <path class="cls-7" d="M107.54,233.8h-.29a4.15,4.15,0,0,1-.92-.07,1.43,1.43,0,0,1-.57-.3,1.28,1.28,0,0,1-.38-.57,3,3,0,0,1-.11-.88v-1h.87v1a1.19,1.19,0,0,0,.17.72.94.94,0,0,0,.71.2h.52V231h.87v5h-.87Z"/>
            <path class="cls-7" d="M109.38,231h2.47v.94h-1.61v.91h1.61v.92h-1.61v1.32h1.61V236h-2.47Z"/>
            <path class="cls-7" d="M116.75,231.86l-.6.64a1.8,1.8,0,0,0-1.39-.72,1.41,1.41,0,0,0-1.09.49,1.79,1.79,0,0,0-.44,1.22,2,2,0,0,0,.19.89,1.57,1.57,0,0,0,.56.61,1.48,1.48,0,0,0,.8.22,1.51,1.51,0,0,0,.68-.15,2.34,2.34,0,0,0,.69-.57l.58.68a3.17,3.17,0,0,1-1,.75,2.31,2.31,0,0,1-1,.21,2.2,2.2,0,0,1-1.73-.74,2.71,2.71,0,0,1-.67-1.9,2.88,2.88,0,0,1,.3-1.34,2.48,2.48,0,0,1,.88-.94,2.26,2.26,0,0,1,1.23-.36,2.33,2.33,0,0,1,1.08.27A2.61,2.61,0,0,1,116.75,231.86Z"/>
            <path class="cls-7" d="M117.45,231h.87v1.73l1.23-1.73h1L119,233.22l1.73,2.79h-1l-1.39-2.24V236h-.87Z"/>
            <path class="cls-7" d="M122.67,231h.87l1.74,5h-.9l-.35-1h-1.85l-.36,1h-.9Zm.44,1.33L122.5,234h1.21Z"/>
            <path class="cls-7" d="M128.55,231v5h-.87v-2h-.21l-.91,2h-.94l1-2.18a1.24,1.24,0,0,1-.89-1.32,1.76,1.76,0,0,1,.1-.64,1.33,1.33,0,0,1,.26-.47,1.15,1.15,0,0,1,.41-.28,1.43,1.43,0,0,1,.36-.1l.75,0Zm-.87,2.07v-1.13h-.23a1.66,1.66,0,0,0-.46,0,.38.38,0,0,0-.23.18.68.68,0,0,0-.09.35.52.52,0,0,0,.17.44,1.07,1.07,0,0,0,.58.12Z"/>
            <path class="cls-7" d="M131.21,231h3.26v5h-.87v-4.13h-1.51V236h-.88Z"/>
            <path class="cls-7" d="M136.82,231h.87l1.74,5h-.89l-.36-1h-1.84l-.37,1h-.9Zm.44,1.33-.61,1.73h1.22Z"/>
            <path class="cls-7" d="M140,231H141a2.7,2.7,0,0,1,1.06.15,1.12,1.12,0,0,1,.52.49,1.63,1.63,0,0,1,.19.82,1.42,1.42,0,0,1-.25.87,1.23,1.23,0,0,1-.67.49,3.62,3.62,0,0,1-.91.08V236H140Zm.86,2h.28a1.21,1.21,0,0,0,.45-.06.35.35,0,0,0,.19-.17.49.49,0,0,0,.08-.28.47.47,0,0,0-.21-.43,1.09,1.09,0,0,0-.54-.1h-.25Z"/>
            <path class="cls-7" d="M143.05,231h2.51v.94h-.83V236h-.87v-4.09h-.81Z"/>
            <path class="cls-7" d="M149.38,231v5h-.86v-3.15L146.83,236h-.75v-5h.86v3.25l1.71-3.25Z"/>
            <path class="cls-7" d="M153,231v5h-.86v-2h-.21l-.91,2h-.94l1-2.18a1.24,1.24,0,0,1-.89-1.32,2,2,0,0,1,.09-.64,1.35,1.35,0,0,1,.27-.47,1.21,1.21,0,0,1,.4-.28,1.6,1.6,0,0,1,.37-.1l.75,0Zm-.86,2.07v-1.13h-.23a1.79,1.79,0,0,0-.47,0,.44.44,0,0,0-.23.18.68.68,0,0,0-.09.35.49.49,0,0,0,.18.44,1.05,1.05,0,0,0,.57.12Z"/>
            <path class="cls-7" d="M155.81,232.29h.78l-.57,1.87.57,1.85h-.78l-.57-1.85Zm1.39,0H158l-.57,1.87L158,236h-.78l-.57-1.85Z"/>
            <path class="cls-7" d="M158.73,234.7a1,1,0,0,0,.8.53.66.66,0,0,0,.5-.19.72.72,0,0,0,.18-.51A.77.77,0,0,0,160,234a1,1,0,0,0-.76-.2h-.18V233h.18a.74.74,0,0,0,.52-.17.63.63,0,0,0,.18-.47.61.61,0,0,0-.15-.43.53.53,0,0,0-.39-.16.9.9,0,0,0-.6.32l-.5-.63a2,2,0,0,1,.68-.49,1.92,1.92,0,0,1,.5-.08,1.31,1.31,0,0,1,.94.36,1.27,1.27,0,0,1,.37,1,1.59,1.59,0,0,1-.08.53,1.24,1.24,0,0,1-.47.54,1.37,1.37,0,0,1,.79,1.34,1.55,1.55,0,0,1-.42,1.13,1.5,1.5,0,0,1-1.09.42,1.54,1.54,0,0,1-.75-.17,2.21,2.21,0,0,1-.73-.72Z"/>
            <path class="cls-7" d="M161.82,231h2.47v.94h-1.61v.91h1.61v.92h-1.61v1.32h1.61V236h-2.47Z"/>
            <path class="cls-7" d="M168,236l-1.25-3.7-1.28,3.7h-.91l1.75-5h.87l1.74,5Z"/>
            <path class="cls-7" d="M169.34,231h2.47v.94H170.2v.91h1.61v.92H170.2v1.32h1.61V236h-2.47Zm.56-1.37a.41.41,0,0,1,.31.14.49.49,0,0,1,.13.35.51.51,0,0,1-.13.35.41.41,0,0,1-.62,0,.51.51,0,0,1-.13-.35.49.49,0,0,1,.13-.35A.41.41,0,0,1,169.9,229.61Zm1.36,0a.41.41,0,0,1,.31.14.49.49,0,0,1,.13.35.51.51,0,0,1-.13.35.41.41,0,0,1-.31.14.43.43,0,0,1-.31-.14.51.51,0,0,1-.13-.35.49.49,0,0,1,.13-.35A.43.43,0,0,1,171.26,229.61Z"/>
            <path class="cls-7" d="M172.55,231h.87v1.9h1.51V231h.88v5h-.88V233.8h-1.51V236h-.87Z"/>
            <path class="cls-7" d="M176.77,236v-5h.86v1.9h.19a2.36,2.36,0,0,1,.9.14,1.32,1.32,0,0,1,.62.52,1.67,1.67,0,0,1,.26.94,1.61,1.61,0,0,1-.23.87,1.33,1.33,0,0,1-.52.51,1.83,1.83,0,0,1-.81.15Zm.86-2.28v1.37h.22a1.16,1.16,0,0,0,.71-.15.63.63,0,0,0,.19-.5c0-.48-.32-.72-.94-.72Zm2.59-2.75h.86v5h-.86Z"/>
            <path class="cls-7" d="M182.05,231h2.47v.94h-1.61v.91h1.61v.92h-1.61v1.32h1.61V236h-2.47Z"/>
            <path class="cls-7" d="M185.61,236h-.78l.56-1.88-.57-1.84h.79l.56,1.84Zm1.39,0h-.78l.57-1.88-.58-1.84H187l.56,1.84Z"/>
            <path class="cls-7" d="M41.79,238.9h.78a2.33,2.33,0,0,1,.92.13,1,1,0,0,1,.44.42,1.39,1.39,0,0,1,.16.7,1.28,1.28,0,0,1-.21.75,1,1,0,0,1-.58.41,2.7,2.7,0,0,1-.77.07v1.83h-.74Zm.74,1.68h.23a1.24,1.24,0,0,0,.39,0,.4.4,0,0,0,.17-.15.45.45,0,0,0,.06-.24.41.41,0,0,0-.18-.37,1,1,0,0,0-.47-.08h-.2Z"/>
            <path class="cls-7" d="M44.76,238.9h2.12v.8H45.5v.78h1.38v.79H45.5v1.13h1.38v.81H44.76Z"/>
            <path class="cls-7" d="M47.51,238.9h1.93v.8H48.25v3.51h-.74Z"/>
            <path class="cls-7" d="M52.78,238.9v4.31h-.73v-2.7l-1.45,2.7H50V238.9h.74v2.78l1.46-2.78Z"/>
            <path class="cls-7" d="M55.45,238.79a1.82,1.82,0,0,1,1.41.66,2.46,2.46,0,0,1,0,3.21,1.82,1.82,0,0,1-1.42.66,1.84,1.84,0,0,1-1.45-.68,2.36,2.36,0,0,1-.58-1.59,2.46,2.46,0,0,1,.27-1.14,2.17,2.17,0,0,1,.74-.82A1.87,1.87,0,0,1,55.45,238.79Zm0,.8a1.17,1.17,0,0,0-.91.42,1.57,1.57,0,0,0-.36,1.06,1.45,1.45,0,0,0,.46,1.13,1.21,1.21,0,0,0,.82.32,1.17,1.17,0,0,0,.9-.42,1.56,1.56,0,0,0,.37-1,1.51,1.51,0,0,0-.38-1A1.13,1.13,0,0,0,55.44,239.59Z"/>
            <path class="cls-7" d="M58.09,238.9h.75v1.62h1.3V238.9h.74v4.31h-.74v-1.89h-1.3v1.89h-.75Z"/>
            <path class="cls-7" d="M62.9,238.9h.75l1.49,4.31h-.77l-.3-.89H62.49l-.32.89H61.4Zm.38,1.14-.52,1.48h1Z"/>
            <path class="cls-7" d="M68.17,243.21,67.09,240,66,243.21h-.78l1.5-4.31h.74l1.5,4.31Z"/>
            <path class="cls-7" d="M69.35,243.21V238.9h.73v1.62h.17a2.09,2.09,0,0,1,.76.12,1.15,1.15,0,0,1,.54.45,1.5,1.5,0,0,1,.22.8,1.35,1.35,0,0,1-.19.75,1.18,1.18,0,0,1-.45.44,1.65,1.65,0,0,1-.7.13Zm.73-2v1.16h.19a1,1,0,0,0,.61-.12.52.52,0,0,0,.16-.43c0-.41-.27-.61-.8-.61Z"/>
            <path class="cls-7" d="M72.36,238.9h.75v1.62H74.4V238.9h.75v4.31H74.4v-1.89H73.11v1.89h-.75Z"/>
            <path class="cls-7" d="M77.81,238.79a1.85,1.85,0,0,1,1.42.66,2.36,2.36,0,0,1,.59,1.62,2.29,2.29,0,0,1-.58,1.59,1.84,1.84,0,0,1-1.42.66,1.81,1.81,0,0,1-1.45-.68,2.31,2.31,0,0,1-.58-1.59,2.46,2.46,0,0,1,.27-1.14,2.09,2.09,0,0,1,.74-.82A1.84,1.84,0,0,1,77.81,238.79Zm0,.8a1.14,1.14,0,0,0-.9.42,1.52,1.52,0,0,0-.37,1.06A1.48,1.48,0,0,0,77,242.2a1.23,1.23,0,0,0,.83.32,1.13,1.13,0,0,0,.89-.42,1.65,1.65,0,0,0,0-2.08A1.15,1.15,0,0,0,77.8,239.59Z"/>
            <path class="cls-7" d="M80.46,238.9h2.12v.8H81.2v.78h1.38v.79H81.2v1.13h1.38v.81H80.46Z"/>
            <path class="cls-7" d="M86.5,238.79a1.85,1.85,0,0,1,1.42.66,2.36,2.36,0,0,1,.59,1.62,2.29,2.29,0,0,1-.58,1.59,1.87,1.87,0,0,1-2.87,0,2.31,2.31,0,0,1-.58-1.59,2.46,2.46,0,0,1,.27-1.14,2.17,2.17,0,0,1,.74-.82A1.84,1.84,0,0,1,86.5,238.79Zm0,.8a1.16,1.16,0,0,0-.91.42,1.57,1.57,0,0,0-.37,1.06,1.46,1.46,0,0,0,.47,1.13,1.19,1.19,0,0,0,.82.32,1.13,1.13,0,0,0,.89-.42,1.65,1.65,0,0,0,0-2.08A1.14,1.14,0,0,0,86.5,239.59Z"/>
            <path class="cls-7" d="M88.77,238.9h2.15v.81h-.71v3.5h-.75v-3.5h-.69Z"/>
            <path class="cls-7" d="M92.63,238.9h.74l1.25,3.54h.43v1.41h-.71v-.64H91.67v.64H91v-1.41h.43ZM93,240l-.85,2.4h1.69Z"/>
            <path class="cls-7" d="M95.48,238.9H97.6v.8H96.21v.78H97.6v.79H96.21v1.13H97.6v.81H95.48Z"/>
            <path class="cls-7" d="M100.74,243.21,99.67,240l-1.09,3.17h-.79l1.5-4.31H100l1.49,4.31Z"/>
            <path class="cls-7" d="M101.93,238.9H104v.8h-1.38v.78H104v.79h-1.38v1.13H104v.81h-2.11Z"/>
            <path class="cls-7" d="M104.67,238.9h.75v1.62h1.3V238.9h.74v4.31h-.74v-1.89h-1.3v1.89h-.75Z"/>
            <path class="cls-7" d="M111.12,238.9v4.31h-.74v-2.7l-1.45,2.7h-.64V238.9H109v2.78l1.47-2.78Z"/>
            <path class="cls-7" d="M112,238.9h2.12v.8h-1.38v.78h1.38v.79h-1.38v1.13h1.38v.81H112Z"/>
            <path class="cls-7" d="M116.16,238.9h.75v1.62h1.29V238.9H119v4.31h-.75v-1.89h-1.29v1.89h-.75Z"/>
            <path class="cls-7" d="M121.61,238.79a1.85,1.85,0,0,1,1.42.66,2.49,2.49,0,0,1,0,3.21,1.87,1.87,0,0,1-2.87,0,2.31,2.31,0,0,1-.58-1.59,2.46,2.46,0,0,1,.27-1.14,2.09,2.09,0,0,1,.74-.82A1.84,1.84,0,0,1,121.61,238.79Zm0,.8a1.15,1.15,0,0,0-.9.42,1.52,1.52,0,0,0-.37,1.06,1.48,1.48,0,0,0,.46,1.13,1.23,1.23,0,0,0,.83.32,1.13,1.13,0,0,0,.89-.42,1.65,1.65,0,0,0,0-2.08A1.15,1.15,0,0,0,121.6,239.59Z"/>
            <path class="cls-7" d="M124.26,243.21V238.9h.61a3,3,0,0,1,.78.07,1,1,0,0,1,.55.38,1.08,1.08,0,0,1,.21.66,1.13,1.13,0,0,1-.09.45,1.18,1.18,0,0,1-.31.37,1.32,1.32,0,0,1,.52.46,1.29,1.29,0,0,1,.16.66,1.35,1.35,0,0,1-.17.66,1.17,1.17,0,0,1-.43.45,1.54,1.54,0,0,1-.74.15Zm.74-3.53v.91h.16a.52.52,0,0,0,.4-.13.44.44,0,0,0,.13-.34.42.42,0,0,0-.12-.32.52.52,0,0,0-.38-.12Zm0,1.64v1.1h.19a1.13,1.13,0,0,0,.62-.12.5.5,0,0,0,.16-.38.58.58,0,0,0-.19-.44,1,1,0,0,0-.63-.16Z"/>
            <path class="cls-7" d="M127.34,238.9h1.92v.8h-1.19v3.51h-.73Z"/>
            <path class="cls-7" d="M131.62,238.79a1.82,1.82,0,0,1,1.41.66,2.46,2.46,0,0,1,0,3.21,1.82,1.82,0,0,1-1.42.66,1.84,1.84,0,0,1-1.45-.68,2.36,2.36,0,0,1-.58-1.59,2.46,2.46,0,0,1,.27-1.14,2.17,2.17,0,0,1,.74-.82A1.89,1.89,0,0,1,131.62,238.79Zm0,.8a1.14,1.14,0,0,0-.9.42,1.52,1.52,0,0,0-.37,1.06,1.45,1.45,0,0,0,.46,1.13,1.21,1.21,0,0,0,.82.32,1.17,1.17,0,0,0,.9-.42,1.65,1.65,0,0,0,0-2.08A1.15,1.15,0,0,0,131.61,239.59Z"/>
            <path class="cls-7" d="M134.27,238.9h.78a2.24,2.24,0,0,1,.91.13,1,1,0,0,1,.45.42,1.39,1.39,0,0,1,.16.7,1.28,1.28,0,0,1-.21.75,1.06,1.06,0,0,1-.58.41,2.74,2.74,0,0,1-.78.07v1.83h-.73Zm.73,1.68h.24a1.13,1.13,0,0,0,.38,0,.31.31,0,0,0,.17-.15.45.45,0,0,0,.07-.24.41.41,0,0,0-.18-.37,1,1,0,0,0-.47-.08H135Z"/>
            <path class="cls-7" d="M139.07,238.79a1.82,1.82,0,0,1,1.41.66,2.46,2.46,0,0,1,0,3.21,1.82,1.82,0,0,1-1.42.66,1.84,1.84,0,0,1-1.45-.68,2.36,2.36,0,0,1-.58-1.59,2.46,2.46,0,0,1,.27-1.14,2.17,2.17,0,0,1,.74-.82A1.89,1.89,0,0,1,139.07,238.79Zm0,.8a1.14,1.14,0,0,0-.9.42,1.52,1.52,0,0,0-.37,1.06,1.45,1.45,0,0,0,.46,1.13,1.21,1.21,0,0,0,.82.32,1.17,1.17,0,0,0,.9-.42,1.51,1.51,0,0,0,.37-1,1.56,1.56,0,0,0-.37-1A1.15,1.15,0,0,0,139.06,239.59Z"/>
            <path class="cls-7" d="M143,238.9h.75l1.24,3.54h.44v1.41h-.72v-.64H142v.64h-.71v-1.41h.43Zm.38,1.14-.85,2.4h1.7Z"/>
            <path class="cls-7" d="M149.39,239.66l-.51.54a1.55,1.55,0,0,0-1.19-.62,1.23,1.23,0,0,0-.94.42,1.54,1.54,0,0,0-.38,1.05,1.7,1.7,0,0,0,.17.76,1.3,1.3,0,0,0,.48.53,1.35,1.35,0,0,0,.69.19,1.24,1.24,0,0,0,.58-.14,2.14,2.14,0,0,0,.59-.48l.5.58a2.85,2.85,0,0,1-.81.64,2.07,2.07,0,0,1-.88.19,1.94,1.94,0,0,1-1.48-.64,2.64,2.64,0,0,1-.31-2.78,2.08,2.08,0,0,1,.75-.81,2,2,0,0,1,1-.3,2,2,0,0,1,.93.22A2.24,2.24,0,0,1,149.39,239.66Z"/>
            <path class="cls-7" d="M150,238.9h.75v1.48l1-1.48h.89l-1.36,1.92,1.49,2.39h-.88l-1.19-1.92v1.92H150Z"/>
            <path class="cls-7" d="M155.11,238.79a1.85,1.85,0,0,1,1.42.66,2.36,2.36,0,0,1,.59,1.62,2.3,2.3,0,0,1-.59,1.59,1.86,1.86,0,0,1-2.86,0,2.31,2.31,0,0,1-.58-1.59,2.46,2.46,0,0,1,.27-1.14,2.09,2.09,0,0,1,.74-.82A1.84,1.84,0,0,1,155.11,238.79Zm0,.8a1.14,1.14,0,0,0-.9.42,1.52,1.52,0,0,0-.37,1.06,1.48,1.48,0,0,0,.46,1.13,1.23,1.23,0,0,0,.83.32,1.15,1.15,0,0,0,.89-.42,1.65,1.65,0,0,0,0-2.08A1.15,1.15,0,0,0,155.1,239.59Z"/>
            <path class="cls-7" d="M160.58,238.9v4.31h-.73v-2.7l-1.45,2.7h-.64V238.9h.74v2.78L160,238.9Zm-2.46-1.16h.58a.47.47,0,0,0,.19.18.67.67,0,0,0,.3.06.66.66,0,0,0,.32-.07.4.4,0,0,0,.17-.17h.58a.89.89,0,0,1-.32.6,1.14,1.14,0,0,1-.75.22,1.29,1.29,0,0,1-.55-.1.83.83,0,0,1-.35-.29A.91.91,0,0,1,158.12,237.74Z"/>
            <path class="cls-7" d="M164.71,238.79a1.83,1.83,0,0,1,1.41.66,2.49,2.49,0,0,1,0,3.21,1.87,1.87,0,0,1-2.87,0,2.31,2.31,0,0,1-.58-1.59,2.46,2.46,0,0,1,.27-1.14,2.17,2.17,0,0,1,.74-.82A1.84,1.84,0,0,1,164.71,238.79Zm0,.8a1.17,1.17,0,0,0-.91.42,1.57,1.57,0,0,0-.37,1.06,1.46,1.46,0,0,0,.47,1.13,1.21,1.21,0,0,0,.82.32,1.13,1.13,0,0,0,.89-.42,1.65,1.65,0,0,0,0-2.08A1.14,1.14,0,0,0,164.7,239.59Z"/>
            <path class="cls-7" d="M167.35,243.21V238.9h2v.8h-1.29v.82h.16a2.21,2.21,0,0,1,.8.12,1.09,1.09,0,0,1,.52.46,1.42,1.42,0,0,1,.21.78,1.37,1.37,0,0,1-.16.72,1.13,1.13,0,0,1-.43.44,1.44,1.44,0,0,1-.75.17Zm.74-2v1.16h.19c.33,0,.55,0,.64-.14a.57.57,0,0,0,.13-.4c0-.42-.27-.62-.81-.62Z"/>
            <path class="cls-7" d="M172.88,243.21,171.81,240l-1.09,3.17h-.79l1.5-4.31h.75l1.49,4.31Z"/>
            <path class="cls-7" d="M175.25,238.9H176l1.49,4.31h-.77l-.3-.89h-1.59l-.31.89h-.77Zm.38,1.14-.52,1.48h1Z"/>
            <path class="cls-7" d="M181.57,239.66l-.52.54a1.53,1.53,0,0,0-1.18-.62,1.23,1.23,0,0,0-.94.42,1.54,1.54,0,0,0-.38,1.05,1.7,1.7,0,0,0,.17.76,1.23,1.23,0,0,0,.48.53,1.31,1.31,0,0,0,.68.19,1.28,1.28,0,0,0,.59-.14,2.12,2.12,0,0,0,.58-.48l.5.58a2.6,2.6,0,0,1-.81.64,2,2,0,0,1-.87.19,1.92,1.92,0,0,1-1.48-.64,2.33,2.33,0,0,1-.58-1.64,2.37,2.37,0,0,1,.27-1.14,2.08,2.08,0,0,1,.75-.81,1.94,1.94,0,0,1,1-.3,2,2,0,0,1,.92.22A2.18,2.18,0,0,1,181.57,239.66Z"/>
            <path class="cls-7" d="M181.78,238.9h2.14v.81h-.7v3.5h-.75v-3.5h-.69Z"/>
            <path class="cls-7" d="M187.2,238.9v4.31h-.74v-2.7l-1.44,2.7h-.65V238.9h.74v2.78l1.47-2.78Z"/>
            <path class="cls-7" d="M10.09,255.21H8.51v-6H6.37v-1.38h5.85v1.38H10.09Z"/>
            <path class="cls-7" d="M14.42,255.06a.86.86,0,0,1-.63.27.92.92,0,0,1-.89-.89.86.86,0,0,1,.27-.63.82.82,0,0,1,.62-.26.89.89,0,0,1,.89.89A.82.82,0,0,1,14.42,255.06Z"/>
            <path class="cls-7" d="M20.57,255.21H19v-.74a4.69,4.69,0,0,1-2.62-.9,2.66,2.66,0,0,1,0-4,4.77,4.77,0,0,1,2.62-.91v-.75h1.56v.75a4.68,4.68,0,0,1,2.61.91,2.45,2.45,0,0,1,.93,2,2.49,2.49,0,0,1-.93,2,4.68,4.68,0,0,1-2.61.9Zm-3-4.69a1.32,1.32,0,0,0,0,2,2.88,2.88,0,0,0,1.45.5V250A3,3,0,0,0,17.56,250.52Zm4.45,2a1.3,1.3,0,0,0,0-2,2.9,2.9,0,0,0-1.44-.51v3.06A2.81,2.81,0,0,0,22,252.57Z"/>
            <path class="cls-7" d="M26.67,255.21H25.11v-7.34h3.43a2.4,2.4,0,0,1,1.81.68,2.31,2.31,0,0,1,.66,1.69,2.34,2.34,0,0,1-.66,1.68,2.41,2.41,0,0,1-1.81.68H26.67Zm1.66-4a1.12,1.12,0,0,0,.78-.26,1,1,0,0,0,0-1.45,1.12,1.12,0,0,0-.78-.26H26.67v2Z"/>
            <path class="cls-7" d="M32.85,255.34a3,3,0,0,1-1-.15,2.06,2.06,0,0,1-.71-.38l.6-1.25a1.52,1.52,0,0,0,.94.39,1,1,0,0,0,.62-.17,1.65,1.65,0,0,0,.45-.59l-2.71-5.32h1.78l1.81,3.89,1.83-3.89h1.77l-3,5.93a3,3,0,0,1-.93,1.14A2.44,2.44,0,0,1,32.85,255.34Z"/>
            <path class="cls-7" d="M45.45,255.21H43.88v-3.08H40.41v3.08H38.85v-7.34h1.56v2.88h3.47v-2.88h1.57Z"/>
            <path class="cls-7" d="M49.3,255.34a4.71,4.71,0,0,1-1.79-.33,2.93,2.93,0,0,1-1.24-.85l.82-1a2.52,2.52,0,0,0,1,.61,3.39,3.39,0,0,0,1.17.22,2,2,0,0,0,1.12-.26.75.75,0,0,0,.41-.67c0-.57-.54-.85-1.61-.85H47.66V250.8h1.49a2.51,2.51,0,0,0,1.08-.2.62.62,0,0,0,.41-.59.71.71,0,0,0-.42-.64,2.26,2.26,0,0,0-1.07-.22,2.77,2.77,0,0,0-2,.76l-.78-1a3.18,3.18,0,0,1,1.23-.85,4.44,4.44,0,0,1,1.7-.32,3.72,3.72,0,0,1,2.1.54,1.65,1.65,0,0,1,.8,1.45,1.45,1.45,0,0,1-.47,1.11,2.21,2.21,0,0,1-1.12.56,2.1,2.1,0,0,1,1.17.54,1.53,1.53,0,0,1,.53,1.22,1.83,1.83,0,0,1-.84,1.55A3.62,3.62,0,0,1,49.3,255.34Z"/>
            <path class="cls-7" d="M58.57,255.21H53.38v-7.34h5.19v1.38H54.94v1.55H58.5v1.37H54.94v1.66h3.63Z"/>
            <path class="cls-7" d="M64.63,253.14H62V252h2.64Z"/>
            <path class="cls-7" d="M71.76,255.34A3.74,3.74,0,0,1,69,254.27a4,4,0,0,1,0-5.45,4.07,4.07,0,0,1,5.5,0,4,4,0,0,1,0,5.45A3.79,3.79,0,0,1,71.76,255.34Zm-1.61-2.07a2,2,0,0,0,1.61.68,2.06,2.06,0,0,0,1.62-.68,2.74,2.74,0,0,0,0-3.45,2.07,2.07,0,0,0-1.62-.69,2,2,0,0,0-1.61.69,2.74,2.74,0,0,0,0,3.45Z"/>
            <path class="cls-7" d="M76.15,255.34V254a1,1,0,0,0,.91-.48,4.48,4.48,0,0,0,.49-1.85l.43-3.75h5.21v7.34H81.62v-6H79.38l-.28,2.48a8.87,8.87,0,0,1-.39,1.84,2.68,2.68,0,0,1-.66,1.11,2.38,2.38,0,0,1-.84.52A3.68,3.68,0,0,1,76.15,255.34Z"/>
            <path class="cls-7" d="M88,255.34a3.76,3.76,0,0,1-2.75-1.07,4,4,0,0,1,0-5.45A3.76,3.76,0,0,1,88,247.75a3.72,3.72,0,0,1,2.75,1.07,4,4,0,0,1,0,5.45A3.76,3.76,0,0,1,88,255.34Zm-1.61-2.07A2,2,0,0,0,88,254a2.05,2.05,0,0,0,1.61-.68,2.71,2.71,0,0,0,0-3.45,2.06,2.06,0,0,0-1.61-.69,2,2,0,0,0-1.61.69,2.71,2.71,0,0,0,0,3.45Z"/>
            <path class="cls-7" d="M96.81,255.21h-4v-7.34h3.86a2.13,2.13,0,0,1,1.55.54,1.81,1.81,0,0,1,.56,1.33,1.73,1.73,0,0,1-.36,1.12,1.55,1.55,0,0,1-.91.56,1.55,1.55,0,0,1,1,.61,1.87,1.87,0,0,1,.4,1.2,1.91,1.91,0,0,1-.56,1.42A2.14,2.14,0,0,1,96.81,255.21Zm-.46-4.4a.88.88,0,0,0,.62-.22.83.83,0,0,0,0-1.15.88.88,0,0,0-.62-.23h-2v1.6Zm.05,3a1,1,0,0,0,.69-.22.79.79,0,0,0,.26-.62.8.8,0,0,0-.26-.61.91.91,0,0,0-.69-.25h-2v1.7Z"/>
            <path class="cls-7" d="M101.48,255.21H99.69l1.65-2.8a2,2,0,0,1-1.14-.71,2.22,2.22,0,0,1-.47-1.46,2.32,2.32,0,0,1,.67-1.71,2.43,2.43,0,0,1,1.8-.66h3.43v7.34h-1.56V252.6h-1.14Zm1-4h1.64v-2h-1.64a1.14,1.14,0,0,0-.79.26,1,1,0,0,0,0,1.45A1.14,1.14,0,0,0,102.43,251.22Z"/>
            <path class="cls-7" d="M113.57,255.21H112v-3.08h-3.47v3.08H107v-7.34h1.56v2.88H112v-2.88h1.57Z"/>
            <path class="cls-7" d="M121.18,255.21h-1.92L117,252.27l-.58.68v2.26H114.9v-7.34h1.56v3.28l2.6-3.28H121l-2.92,3.44Z"/>
            <path class="cls-7" d="M128.63,255.21h-1.78L126.4,254h-3.15l-.46,1.25H121l2.84-7.34h2ZM126,252.59l-1.15-3.16-1.14,3.16Z"/>
            <path class="cls-7" d="M130.84,254.67a2.22,2.22,0,0,1-.31,1.14,2.92,2.92,0,0,1-.82.9l-.61-.49a1.68,1.68,0,0,0,.53-.45,1.33,1.33,0,0,0,.32-.59.52.52,0,0,1-.21,0,.73.73,0,0,1-.53-.22.81.81,0,0,1-.22-.57.88.88,0,0,1,.26-.63.82.82,0,0,1,.6-.25.94.94,0,0,1,.7.3A1.14,1.14,0,0,1,130.84,254.67Z"/>
            <path class="cls-7" d="M139.93,255.21h-5.52V254a36,36,0,0,0,3.12-2.5,2,2,0,0,0,.76-1.39.82.82,0,0,0-.35-.7,1.41,1.41,0,0,0-.84-.25,2.64,2.64,0,0,0-2,.84l-.89-1a3.28,3.28,0,0,1,1.27-.9,4.16,4.16,0,0,1,1.56-.3,3.1,3.1,0,0,1,2,.64,2.06,2.06,0,0,1,.79,1.7,2.75,2.75,0,0,1-.71,1.77,12.15,12.15,0,0,1-2.22,2h3Z"/>
            <path class="cls-7" d="M144.17,255.21h-1.56v-5.33l-1.22,1.25-.89-.94,2.31-2.32h1.36Z"/>
            <path class="cls-7" d="M147.15,254.67a2.31,2.31,0,0,1-.3,1.14,3,3,0,0,1-.83.9l-.6-.49a1.65,1.65,0,0,0,.52-.45,1.33,1.33,0,0,0,.32-.59.46.46,0,0,1-.21,0,.73.73,0,0,1-.53-.22.8.8,0,0,1-.21-.57.87.87,0,0,1,.25-.63.82.82,0,0,1,.6-.25.92.92,0,0,1,.7.3A1.1,1.1,0,0,1,147.15,254.67Z"/>
            <path class="cls-7" d="M157.21,255.21h-1.93l-2.22-2.94-.57.68v2.26h-1.56v-7.34h1.56v3.28l2.6-3.28H157l-2.91,3.44Z"/>
            <path class="cls-7" d="M164.66,255.21h-1.79l-.45-1.25h-3.14l-.47,1.25H157l2.84-7.34h2ZM162,252.59l-1.14-3.16-1.14,3.16Z"/>
            <path class="cls-7" d="M165.23,247.87h5.35v1.38h-3.79v1.29h1.9a2.37,2.37,0,0,1,1.78.67,2.46,2.46,0,0,1,0,3.33,2.37,2.37,0,0,1-1.78.67h-3.46Zm3.25,4h-1.69v1.91h1.69a1.13,1.13,0,0,0,.76-.26.91.91,0,0,0,.29-.69.89.89,0,0,0-.29-.7A1.08,1.08,0,0,0,168.48,251.92Z"/>
            <path class="cls-7" d="M173.29,255.06a.9.9,0,0,1-1.52-.62.86.86,0,0,1,.27-.63.88.88,0,0,1,1.25,0,.85.85,0,0,1,.26.63A.82.82,0,0,1,173.29,255.06Z"/>
            <path class="cls-7" d="M180.46,255.21H178.9v-5.33l-1.22,1.25-.89-.94,2.31-2.32h1.36Z"/>
            <path class="cls-7" d="M186.42,255.21h-1.56v-1.52h-3.51v-1.23l2.92-4.59h2.15v4.44h1v1.38h-1Zm-1.56-2.9v-3.05l-2,3.05Z"/>
            <path class="cls-7" d="M100.85,266.21H99.42v-5.42h-2v-1.25h5.32v1.25h-1.94Z"/>
            <path class="cls-7" d="M108.32,266.21H103.6v-6.67h4.72v1.25H105v1.41h3.23v1.25H105V265h3.3Z"/>
            <path class="cls-7" d="M108.93,266.33v-1.26a1,1,0,0,0,.83-.44,4.33,4.33,0,0,0,.44-1.68l.39-3.41h4.74v6.67H113.9v-5.42h-2l-.26,2.26a7.64,7.64,0,0,1-.36,1.67,2.34,2.34,0,0,1-.6,1,2.22,2.22,0,0,1-.76.47A3.38,3.38,0,0,1,108.93,266.33Z"/>
            <path class="cls-7" d="M117.73,266.08a.8.8,0,1,1,.24-.57A.78.78,0,0,1,117.73,266.08Z"/>
            <path class="cls-7" d="M123.59,267.58l-.8.62a6,6,0,0,1-1.16-2,7.1,7.1,0,0,1,0-4.81,5.9,5.9,0,0,1,1.16-2l.8.6a8.12,8.12,0,0,0-.77,1.84,7.57,7.57,0,0,0-.24,2,7.67,7.67,0,0,0,.24,2A8,8,0,0,0,123.59,267.58Z"/>
            <path class="cls-7" d="M126.7,266.33a3.56,3.56,0,0,1-1.91-.48,1.58,1.58,0,0,1-.37-2.41,2.31,2.31,0,0,1,1-.67c-.88-.31-1.32-.83-1.32-1.57a1.44,1.44,0,0,1,.76-1.32,3.59,3.59,0,0,1,1.81-.44,4,4,0,0,1,1.22.17,2.17,2.17,0,0,1,1,.58,1.43,1.43,0,0,1,.4,1c0,.73-.45,1.25-1.33,1.57a2.37,2.37,0,0,1,1,.67,1.54,1.54,0,0,1,.41,1,1.52,1.52,0,0,1-.78,1.36A3.49,3.49,0,0,1,126.7,266.33Zm0-1.22a1.65,1.65,0,0,0,.88-.23.66.66,0,0,0,.36-.58.68.68,0,0,0-.41-.6,1.35,1.35,0,0,0-1.67,0,.67.67,0,0,0-.4.6.65.65,0,0,0,.35.58A1.63,1.63,0,0,0,126.7,265.11Zm0-2.9a2.28,2.28,0,0,0,.76-.26.6.6,0,0,0,.36-.53.65.65,0,0,0-.31-.56,1.76,1.76,0,0,0-1.63,0,.63.63,0,0,0-.31.56.6.6,0,0,0,.36.53A2.26,2.26,0,0,0,126.7,262.21Z"/>
            <path class="cls-7" d="M133.08,266.21h-1.42v-4.84l-1.12,1.13-.8-.85,2.09-2.11h1.25Z"/>
            <path class="cls-7" d="M136.86,266.33a2.53,2.53,0,0,1-2.16-1,4,4,0,0,1-.72-2.48,3.61,3.61,0,0,1,.83-2.5,2.84,2.84,0,0,1,2.28-.95,2.94,2.94,0,0,1,2,.69l-.64,1.09a1.86,1.86,0,0,0-1.33-.52,1.51,1.51,0,0,0-1.2.54,2,2,0,0,0-.47,1.35.57.57,0,0,0,0,.14,1.83,1.83,0,0,1,.72-.61,2,2,0,0,1,1-.25,2.38,2.38,0,0,1,1.61.57,2,2,0,0,1,.66,1.6,2.15,2.15,0,0,1-.71,1.64A2.65,2.65,0,0,1,136.86,266.33Zm-.08-1.26a1.22,1.22,0,0,0,.86-.3.91.91,0,0,0,.33-.68.86.86,0,0,0-.36-.75,1.5,1.5,0,0,0-.88-.25,1.57,1.57,0,0,0-1.3.63,1.65,1.65,0,0,0,.38.95A1.17,1.17,0,0,0,136.78,265.07Z"/>
            <path class="cls-7" d="M145.11,266.21h-5V265.1a32.27,32.27,0,0,0,2.84-2.27,1.89,1.89,0,0,0,.7-1.26.73.73,0,0,0-.33-.64,1.19,1.19,0,0,0-.75-.23,2.35,2.35,0,0,0-1.79.77l-.81-.94a3,3,0,0,1,1.15-.82,3.84,3.84,0,0,1,1.41-.27,2.81,2.81,0,0,1,1.83.58,1.88,1.88,0,0,1,.73,1.55,2.52,2.52,0,0,1-.65,1.6,10.68,10.68,0,0,1-2,1.79h2.73Z"/>
            <path class="cls-7" d="M146.49,268.2l-.8-.62a7.93,7.93,0,0,0,.77-1.81,7.68,7.68,0,0,0,.25-2,7.57,7.57,0,0,0-.25-2,7.87,7.87,0,0,0-.77-1.83l.8-.6a6.14,6.14,0,0,1,1.17,2,7.15,7.15,0,0,1,.43,2.4,7,7,0,0,1-.44,2.4A6.3,6.3,0,0,1,146.49,268.2Z"/>
            <path class="cls-7" d="M153.47,266.32a2.84,2.84,0,0,1-2-.69l.63-1.09a1.92,1.92,0,0,0,1.33.52,1.49,1.49,0,0,0,1.23-.56,2,2,0,0,0,.44-1.32V263a2.08,2.08,0,0,1-.72.61,2.21,2.21,0,0,1-1,.25,2.34,2.34,0,0,1-1.61-.58,2,2,0,0,1-.67-1.59,2.11,2.11,0,0,1,.72-1.64,2.61,2.61,0,0,1,1.85-.65,2.71,2.71,0,0,1,1.63.48,2.67,2.67,0,0,1,.95,1.23,4.92,4.92,0,0,1,.29,1.74,3.69,3.69,0,0,1-.83,2.49A2.87,2.87,0,0,1,153.47,266.32Zm.36-3.65a1.61,1.61,0,0,0,1.3-.62,1.65,1.65,0,0,0-.38-1,1.17,1.17,0,0,0-1-.4,1.19,1.19,0,0,0-.85.3.89.89,0,0,0-.33.68.84.84,0,0,0,.37.74A1.43,1.43,0,0,0,153.83,262.67Z"/>
            <path class="cls-7" d="M161.69,266.21h-1.42v-1.38h-3.19v-1.12l2.65-4.17h2v4h.85v1.25h-.85Zm-1.42-2.63V260.8l-1.81,2.78Z"/>
            <path class="cls-7" d="M165.91,266.33a2.53,2.53,0,0,1-2.16-1,4,4,0,0,1-.72-2.48,3.66,3.66,0,0,1,.83-2.5,2.87,2.87,0,0,1,2.28-.95,2.92,2.92,0,0,1,2,.69l-.64,1.09a1.84,1.84,0,0,0-1.33-.52,1.54,1.54,0,0,0-1.2.54,2,2,0,0,0-.47,1.35c0,.06,0,.1,0,.14a2,2,0,0,1,.72-.61,2.08,2.08,0,0,1,1-.25,2.37,2.37,0,0,1,1.61.57,2,2,0,0,1,.66,1.6,2.12,2.12,0,0,1-.71,1.64A2.62,2.62,0,0,1,165.91,266.33Zm-.08-1.26a1.24,1.24,0,0,0,.87-.3.89.89,0,0,0,.32-.68.86.86,0,0,0-.36-.75,1.47,1.47,0,0,0-.88-.25,1.6,1.6,0,0,0-1.3.63,1.72,1.72,0,0,0,.38.95A1.18,1.18,0,0,0,165.83,265.07Z"/>
            <path class="cls-7" d="M171.38,264.33H169v-1.08h2.41Z"/>
            <path class="cls-7" d="M175,266.21h-1.42v-4.84l-1.11,1.13-.81-.85,2.1-2.11H175Z"/>
            <path class="cls-7" d="M178.64,266.33a3.31,3.31,0,0,1-2.56-1l.79-1a2.34,2.34,0,0,0,1.76.73,1.36,1.36,0,0,0,.91-.29.9.9,0,0,0,.34-.7.88.88,0,0,0-.33-.72,1.3,1.3,0,0,0-.88-.27,1.94,1.94,0,0,0-1.39.54l-1-.26v-3.83h4.58v1.25h-3.16v1.63a1.94,1.94,0,0,1,1.46-.56,2.11,2.11,0,0,1,1.52.59,2,2,0,0,1,.63,1.57,2.09,2.09,0,0,1-.74,1.68A2.85,2.85,0,0,1,178.64,266.33Z"/>
            <path class="cls-7" d="M184.79,266.33a2.53,2.53,0,0,1-2.16-1,4,4,0,0,1-.72-2.48,3.61,3.61,0,0,1,.83-2.5,2.84,2.84,0,0,1,2.28-.95,2.94,2.94,0,0,1,2,.69l-.64,1.09a1.86,1.86,0,0,0-1.33-.52,1.51,1.51,0,0,0-1.2.54,2,2,0,0,0-.47,1.35.57.57,0,0,0,0,.14,1.83,1.83,0,0,1,.72-.61,2,2,0,0,1,1-.25,2.38,2.38,0,0,1,1.61.57,2,2,0,0,1,.65,1.6,2.14,2.14,0,0,1-.7,1.64A2.65,2.65,0,0,1,184.79,266.33Zm-.08-1.26a1.22,1.22,0,0,0,.86-.3.91.91,0,0,0,.33-.68.86.86,0,0,0-.36-.75,1.5,1.5,0,0,0-.88-.25,1.57,1.57,0,0,0-1.3.63,1.65,1.65,0,0,0,.38.95A1.17,1.17,0,0,0,184.71,265.07Z"/>
          </g>
          <g id="sign">
            <path class="cls-9" d="M142.16,109.16a9.5,9.5,0,0,1,.06,2.67A9.21,9.21,0,1,1,124,109.15a9,9,0,0,1,7.8-7.31,9.24,9.24,0,0,1,3.73.25"/>
            <path class="cls-7" d="M128.46,108.5l5.3,4.71-2.32.3a60.93,60.93,0,0,1,4.29-5.41c.81-.85,1.62-1.63,2.47-2.4a22.29,22.29,0,0,1,2.75-2.15.6.6,0,0,1,.8.18.58.58,0,0,1-.12.75h0a20,20,0,0,0-2.26,2.33c-.71.84-1.4,1.72-2,2.59a56.83,56.83,0,0,0-3.34,5.66l-.93,1.76-1.39-1.46-4.9-5.12a1.21,1.21,0,0,1,1.68-1.75Z"/>
          </g>
          <g id="verh">
            <path class="cls-10" d="M184.93,45.93A32,32,0,1,0,127.3,65.22h51.17A31.91,31.91,0,0,0,184.93,45.93Z"/>
            <path id="nadpis" class="cls-7" d="M125.89,58.41l.44,1-4.27,1.89-.85-1.92a1.32,1.32,0,0,1,0-1.16,1.75,1.75,0,0,1,2-.9,1.37,1.37,0,0,1,.84.8l.41.93Zm-2.75.26a.5.5,0,0,0-.27-.28.49.49,0,0,0-.39,0,.46.46,0,0,0-.28.28.5.5,0,0,0,0,.38l.36.8.91-.4Zm.08-6.12a2.09,2.09,0,0,1,1.09,1.36,2.13,2.13,0,0,1-.22,1.73,2.44,2.44,0,0,1-1.5,1.09,2.42,2.42,0,0,1-1.84-.15,2.08,2.08,0,0,1-1.09-1.36,2.06,2.06,0,0,1,.22-1.73,2.49,2.49,0,0,1,1.49-1.09A2.44,2.44,0,0,1,123.22,52.55Zm.06,1.65a1,1,0,0,0-.59-.69,1.42,1.42,0,0,0-1,0,1.45,1.45,0,0,0-.84.56,1,1,0,0,0-.15.9,1.08,1.08,0,0,0,.6.7,1.64,1.64,0,0,0,1.86-.53A1,1,0,0,0,123.28,54.2Zm.13-4.77a2.16,2.16,0,0,1-.46,1.69,2.68,2.68,0,0,1-3.46.46,2.14,2.14,0,0,1-.87-1.53,1.89,1.89,0,0,1,1-2l.61.86a1,1,0,0,0-.43.42.88.88,0,0,0-.13.56,1.08,1.08,0,0,0,.5.79,1.57,1.57,0,0,0,1.9-.25,1.05,1.05,0,0,0,.28-.89.84.84,0,0,0-.26-.51,1,1,0,0,0-.53-.29l.37-1a2.33,2.33,0,0,1,1,.57A1.75,1.75,0,0,1,123.41,49.43Zm-.21-4.11a2.16,2.16,0,0,1-.71,1.61,2.67,2.67,0,0,1-3.48,0,2.18,2.18,0,0,1-.64-1.64,1.91,1.91,0,0,1,1.28-1.82l.47.94a1.11,1.11,0,0,0-.48.35.84.84,0,0,0-.21.54,1,1,0,0,0,.38.85,1.4,1.4,0,0,0,1,.35,1.46,1.46,0,0,0,1-.32,1,1,0,0,0,.4-.83.86.86,0,0,0-.18-.55,1.06,1.06,0,0,0-.48-.36l.5-.93a2.27,2.27,0,0,1,.88.71A1.77,1.77,0,0,1,123.2,45.32Zm.11-3.12-.16,1-4.61-.7.16-1.07,2.72.41L119,39.78l.16-1.11,4.62.7-.16,1.08L120.73,40Zm-3.79-7.87a1.25,1.25,0,0,1,.26,1.23,1.28,1.28,0,0,1-.91.88l-.24-.51a.79.79,0,0,0,.59-.54.76.76,0,0,0-.18-.78Zm4.64,3.54-.31,1-4.46-1.38.32-1,2.63.81-2.12-2.43.33-1.08L125,35.13l-.32,1-2.76-.86Zm2-5A2.13,2.13,0,0,1,124.86,34a2.37,2.37,0,0,1-1.85-.16,2.43,2.43,0,0,1-1.29-1.33,2.17,2.17,0,0,1,.09-1.76,1.91,1.91,0,0,1,1.92-1.12l0,1.06a1.11,1.11,0,0,0-.59.11.86.86,0,0,0-.41.41,1.06,1.06,0,0,0,0,.92,1.46,1.46,0,0,0,.73.72,1.44,1.44,0,0,0,1,.11,1,1,0,0,0,.71-.59.82.82,0,0,0,.06-.58,1.18,1.18,0,0,0-.28-.53l.84-.63a2.42,2.42,0,0,1,.51,1A1.77,1.77,0,0,1,126.17,32.83Zm2.93-5.07-.72,1.12-2.08,0,.17.45,1.15.75-.6.9-3.9-2.55.59-.91,1.6,1.05-.89-2.13.73-1.12.93,2.56Zm2.77-3.16-.81.92-.64-.28-1.09,1.25.37.6-.8.93-2.49-4.26.89-1Zm-2.44.18L127.75,24l1,1.55Zm3.32-.92-.93.82-.49-1.85a1.33,1.33,0,0,1-.77,0,1.58,1.58,0,0,1-.79-.52,1.63,1.63,0,0,1-.44-1.1,1.34,1.34,0,0,1,.52-1l1.58-1.39,3.08,3.51-.82.72-1-1.18-.42.36Zm-1.43-2.22.64-.57-.66-.75-.64.56a.54.54,0,0,0-.19.35.46.46,0,0,0,.13.37.45.45,0,0,0,.35.18A.57.57,0,0,0,131.32,21.64Zm6.19-1.24a1.8,1.8,0,0,1-1.16.27,2.38,2.38,0,0,1-1-.41l.55-.9a1,1,0,0,0,.56.23.88.88,0,0,0,.59-.12,1,1,0,0,0,.46-.55,1.17,1.17,0,0,0,0-.74l-1.48.88-.54-.9,1.47-.87a1.16,1.16,0,0,0-.63-.3,1,1,0,0,0-.67.15.94.94,0,0,0-.4.46,1.13,1.13,0,0,0-.06.6l-1,.06a2.47,2.47,0,0,1,.13-1.12,1.83,1.83,0,0,1,.81-.9,2.19,2.19,0,0,1,1.74-.25,2.67,2.67,0,0,1,1.78,3A2.2,2.2,0,0,1,137.51,20.4Zm5.71-2.84-1.22.51-1.7-1.18-.11.47.53,1.26-1,.42-1.82-4.3,1-.42.75,1.76.44-2.27,1.23-.52-.65,2.65ZM146.69,16a2.13,2.13,0,0,1-1.38,1.06,2.1,2.1,0,0,1-1.73-.25,2.39,2.39,0,0,1-1.06-1.51,2.41,2.41,0,0,1,.18-1.84,2.06,2.06,0,0,1,1.38-1.07,2.13,2.13,0,0,1,1.73.25,2.44,2.44,0,0,1,1.05,1.52A2.41,2.41,0,0,1,146.69,16Zm-1.65,0a1,1,0,0,0,.7-.58,1.44,1.44,0,0,0,.06-1,1.49,1.49,0,0,0-.55-.86,1,1,0,0,0-.9-.16,1,1,0,0,0-.71.58,1.53,1.53,0,0,0,0,1,1.42,1.42,0,0,0,.55.85A1,1,0,0,0,145,16.06Zm2.49.46-.11-1.06a.56.56,0,0,0,.46-.34,2.74,2.74,0,0,0,.16-1.06V11.68l3.11-.33.5,4.64-1.08.12-.38-3.6-1.07.11V14a4.9,4.9,0,0,1-.12,1.17,1.74,1.74,0,0,1-.34.75,1.62,1.62,0,0,1-.49.39A2.21,2.21,0,0,1,147.53,16.52Zm8.31-1a2.25,2.25,0,0,1-3.22-.14,2.47,2.47,0,0,1-.56-1.77,2.43,2.43,0,0,1,.71-1.7,2.11,2.11,0,0,1,1.64-.61,2.13,2.13,0,0,1,1.58.75,2.46,2.46,0,0,1,.56,1.76A2.48,2.48,0,0,1,155.84,15.54Zm-1.59-.46a1,1,0,0,0,.84-.35,1.47,1.47,0,0,0,.36-1,1.53,1.53,0,0,0-.28-1,1.08,1.08,0,0,0-1.65-.07,1.52,1.52,0,0,0-.36.95,1.49,1.49,0,0,0,.27,1A1,1,0,0,0,154.25,15.08Zm3.59,1.36-1.07-.19.83-4.6,3,.55-.18,1-2-.35Zm3.32.74-1-.32,1.43-4.44,1,.33-.84,2.62,2.46-2.1,1.07.35-1.43,4.44-1-.33.88-2.75Zm6.15-2.67-.61,1.25a.62.62,0,0,0,.29.94,1.71,1.71,0,0,0,.69.19l.87-1.77,1,.47-2,4.2-1-.48.72-1.47a3.45,3.45,0,0,1-.82-.26,1.54,1.54,0,0,1-.89-1,1.94,1.94,0,0,1,.2-1.34l.61-1.25Zm3.21,7.25L168,20.07l2.55-3.9,2.58,1.69-.57.87-1.67-1.09-.4.61,1.63,1.07-.57.88-1.64-1.07-.43.66,1.67,1.09Zm1.86,1.65a2.15,2.15,0,0,1-.79-1.57,2.37,2.37,0,0,1,.63-1.74,2.41,2.41,0,0,1,1.63-.91,2.13,2.13,0,0,1,1.67.55,1.88,1.88,0,0,1,.58,2.14l-1-.23a1.11,1.11,0,0,0,.05-.6.85.85,0,0,0-.29-.5,1,1,0,0,0-.89-.25,1.41,1.41,0,0,0-.88.51,1.43,1.43,0,0,0-.37,1,1.07,1.07,0,0,0,.38.84.89.89,0,0,0,.55.21,1.16,1.16,0,0,0,.58-.14l.39,1a2.47,2.47,0,0,1-1.1.23A1.76,1.76,0,0,1,172.38,23.41Zm4.14,4.16-.89-1,.58-2-.48.05-1,.91-.72-.81,3.48-3.11.72.81-1.43,1.28,2.29-.31.89,1-2.71.24ZM178.85,31l-.69-1,.44-.55-.93-1.37-.67.2-.69-1L181.07,26l.76,1.13Zm.46-2.4,1.15-1.43-1.75.54Zm0,3.44L178.78,31h1.92a1.25,1.25,0,0,1,.17-.75,1.8,1.8,0,0,1,1.88-.76,1.35,1.35,0,0,1,.87.76l.93,1.89-4.18,2.07-.49-1,1.41-.69L181,32Zm2.52-.8.38.77.9-.44-.38-.77a.53.53,0,0,0-.28-.27.54.54,0,0,0-.66.32A.53.53,0,0,0,181.85,31.28Zm.28,8.55-.28-1,3.49-.95-.46-1.69-3.49,1-.29-1,4.51-1.23,1,3.77Zm.59,4.58-.15-1.22.64-.29-.2-1.64-.69-.13-.15-1.22,4.83,1,.16,1.35Zm1.5-1.93,1.68-.75-1.81-.31Zm-1.55,3.1V44.5l4.67,0,0,2.11a1.36,1.36,0,0,1-.46,1.06,1.63,1.63,0,0,1-1.11.38,1.65,1.65,0,0,1-1.1-.4,1.37,1.37,0,0,1-.43-1.08v-1Zm2.61.91a.5.5,0,0,0,.13.36.46.46,0,0,0,.36.15.5.5,0,0,0,.37-.14.49.49,0,0,0,.14-.36v-.88h-1Zm-2.95,3.86.14-1.08,3.59.48.16-1.16,1,.13-.46,3.41-1-.14.16-1.16Zm-.47,2.45.27-1L186.64,53l-.29,1-2.65-.73,2.2,2.37-.29,1.08-4.51-1.23.29-1.05,2.78.76ZM180.49,57l.49-1.14,1.24,1.47a1.2,1.2,0,0,1,.68-.35,1.54,1.54,0,0,1,.94.13,1.61,1.61,0,0,1,.86.8,1.35,1.35,0,0,1,0,1.16L183.84,61l-4.28-1.86.43-1,1.44.62.22-.5Zm2.24,1.41-.34.78.92.4.34-.79a.53.53,0,0,0,0-.39.48.48,0,0,0-.28-.28.47.47,0,0,0-.4,0A.52.52,0,0,0,182.73,58.44ZM136.2,66.85h-1.13l-1.29-1.62,1.29-1.6h1.13l-1.3,1.6Zm1.71,0h-1.12l-1.3-1.62,1.3-1.6h1.12l-1.29,1.6Zm2.07.65a2.65,2.65,0,0,1-1.07-.21,1.65,1.65,0,0,1-.73-.53l.54-.82a1.39,1.39,0,0,0,.57.36,1.79,1.79,0,0,0,.65.13,1.15,1.15,0,0,0,.57-.12.4.4,0,0,0,.2-.33.3.3,0,0,0-.19-.3,1.52,1.52,0,0,0-.62-.09H139V64.53h.86c.49,0,.74-.12.74-.36a.34.34,0,0,0-.21-.32,1.27,1.27,0,0,0-.56-.11,1.51,1.51,0,0,0-1.11.45l-.53-.76a2,2,0,0,1,.74-.55,2.38,2.38,0,0,1,1-.2,2.07,2.07,0,0,1,1.26.34,1.11,1.11,0,0,1,.47.94,1,1,0,0,1-.26.69,1.2,1.2,0,0,1-.66.36,1.11,1.11,0,0,1,.69.34,1,1,0,0,1,.3.76,1.2,1.2,0,0,1-.51,1A2.07,2.07,0,0,1,140,67.5Zm5.42-.09h-3.08V62.75h3.08v1h-2v.73h2v1h-2v.79h2Zm.34.09V66.43a.55.55,0,0,0,.49-.28,2.69,2.69,0,0,0,.27-1l.25-2.36h3.13v4.66H148.8V63.79h-1.07l-.15,1.41a5.13,5.13,0,0,1-.24,1.15,1.78,1.78,0,0,1-.42.71,1.54,1.54,0,0,1-.53.34A1.89,1.89,0,0,1,145.74,67.5Zm7.92-.09h-3.08V62.75h3.08v1h-2v.73h2v1h-2v.79h2Zm-1.72-5.47a.57.57,0,0,1-.15.4.47.47,0,0,1-.35.15.45.45,0,0,1-.35-.15.56.56,0,0,1-.14-.4.51.51,0,0,1,.14-.38.44.44,0,0,1,.35-.17.46.46,0,0,1,.35.17A.52.52,0,0,1,151.94,61.94Zm1.34,0a.56.56,0,0,1-.14.4.49.49,0,0,1-.35.15.45.45,0,0,1-.35-.15.57.57,0,0,1-.15-.4.52.52,0,0,1,.15-.38.46.46,0,0,1,.35-.17.47.47,0,0,1,.35.17A.51.51,0,0,1,153.28,61.94Zm4.85,5.47h-1.08V65.54h-1.74v1.87h-1.09V62.75h1.09v1.74h1.74V62.75h1.08Zm.7-4.66h1.08v1.56h1a1.33,1.33,0,0,1,1.07.45,1.59,1.59,0,0,1,.39,1.1A1.64,1.64,0,0,1,162,67a1.33,1.33,0,0,1-1.07.44h-2.1Zm2,2.61h-.88v1h.88a.47.47,0,0,0,.5-.5.47.47,0,0,0-.14-.36A.51.51,0,0,0,160.79,65.36Zm3,2H162.7V62.75h1.09Zm3.77,0h-3.08V62.75h3.08v1h-2v.73h2v1h-2v.79h2Zm2.85-2.18-1.29,1.62H168l1.3-1.62-1.3-1.6h1.13Zm1.72,0-1.3,1.62h-1.12L171,65.23l-1.29-1.6h1.12Z"/>
            <g id="elka">
              <path class="cls-11" d="M152.89,20.76l-1.35,3.48-.19.47c-.48,2-.48,4.07-2.4,5.89a3.37,3.37,0,0,0-.22.68c-.38,1.85.53,4.1-1.71,5.19l-.29.81c-1.56,4.61.47,3.71.19,6.06-.13.29-2.91,1-3,1.29-.4,2.07-.4,4.18-2.2,5.11-.11.2-.19.39-.27.57-.64,1.67-.92,1.8-1,2.68.21.31,4.24.18,9.88.25.46,0,2.11.65,2.57.65s2.61-.56,3.18-.56a69.31,69.31,0,0,0,9.21-.33c.47-.22,0-.19-.12-.49-.06-.14,0-.3-.11-.51-1.68-1.92-3.64-4.19-2.65-6.25-.15-.17-.3-.36-.45-.54-1.22-1.5-2.44-3.35-1.79-5.83-.08-.2-.16-.4-.23-.6-1.63-1.57-1.63-3.68-2.09-5.38l-.23-.59-.22-.58c-.09-.21-.17-.43-.25-.64.77-.47-.38-1.09-1-1.85a1.35,1.35,0,0,1-.31-.59c-.7-1.43-.7-3.53-1.24-4.09l-.19-.51Z"/>
              <path class="cls-12" d="M152.91,48v0Z"/>
            </g>
          </g>
          <line class="cls-13" x1="191.24" y1="266.79" x2="191.24" y2="224.54"/>
        </g>
      </g>
    </g>
  </g>
</svg>
